<?xml version="1.0" encoding="utf-8"?>
<!-- Generator: Adobe Illustrator 22.0.1, SVG Export Plug-In . SVG Version: 6.00 Build 0)  -->
<svg version="1.1" id="Layer_1" xmlns="http://www.w3.org/2000/svg" xmlns:xlink="http://www.w3.org/1999/xlink" x="0px" y="0px"
	 viewBox="0 0 150 150" style="enable-background:new 0 0 150 150;" xml:space="preserve">
<style type="text/css">
	.st0{opacity:0.1;}
	.st1{fill:#0031FF;}
</style>
<g class="st0">
	<path class="st1" d="M1.9,93.4c0-44.9,41.5-72.3,47.9-75.7c4.7-2.6,9-4.3,12-4.3c2.6,0,4.3,1.3,4.3,3.4c0,2.1-2.1,4.7-4.3,6.4
		c-6,4.3-22.7,26.5-22.7,47.5c0,5.6,3,10.7,6.4,12.4c3.9,2.1,21.8,6,21.8,28.7c0,13.3-10.7,24.8-25.7,24.8
		C22,136.6,1.9,121.6,1.9,93.4z M82.7,93.4c0-44.9,41.5-72.3,47.9-75.7c4.7-2.6,9-4.3,12-4.3c2.6,0,4.3,1.3,4.3,3.4
		c0,2.1-2.1,4.7-4.3,6.4c-6,4.3-22.7,26.5-22.7,47.5c0,5.6,3,10.7,6.4,12.4c3.9,2.1,21.8,6,21.8,28.7c0,13.3-10.7,24.8-25.7,24.8
		C102.8,136.6,82.7,121.6,82.7,93.4z"/>
</g>
</svg>
