<?xml version="1.0" encoding="utf-8"?>
<!-- Generator: Adobe Illustrator 22.0.1, SVG Export Plug-In . SVG Version: 6.00 Build 0)  -->
<svg version="1.1" id="Layer_1" xmlns="http://www.w3.org/2000/svg" xmlns:xlink="http://www.w3.org/1999/xlink" x="0px" y="0px"
	 viewBox="0 0 150 150" style="enable-background:new 0 0 150 150;" xml:space="preserve">
<style type="text/css">
	.st0{fill:#E0E0E0;}
	.st1{opacity:0.55;fill:#E0E0E0;}
</style>
<path class="st0" d="M149.6,150H0.8c1.6-8.2,5.9-25.1,12.6-31.9c8.1-8.2,19.7-7.1,31-8.8c0.4-0.1,0.8-0.1,1.3-0.2c1-0.2,2-0.4,3-0.6
	c1.2-0.3,2.3-0.6,3.2-1c11-4.5,11-26.2,11-26.2h24.5c0,0,0,21.7,11,26.2c1,0.4,2.2,0.8,3.5,1.1c0.4,0.1,0.8,0.2,1.2,0.2
	c0.5,0.1,1,0.2,1.5,0.3c11.6,1.9,23.8,0.4,32.2,8.9C143.6,124.9,147.9,141.8,149.6,150z"/>
<path class="st1" d="M74.1,105.1c11,0,16-3.6,17.5-4.5c-4.1-8-4.1-19.2-4.1-19.2H62.9c0,0,0,12.1-4.6,20.1
	C59.1,101.8,67.3,105.1,74.1,105.1z"/>
<g>
	<path class="st0" d="M39.3,57.1c4-5.5,13.2,3.4,13.2,3.4s5.7,6.6-0.9,14.7c-3.3,4-7.1,1-9.7-3.8C39.3,66.6,36.4,61,39.3,57.1z"/>
	<path class="st0" d="M45.1,71.9c0.9,0.9,2,1.6,3.4,1.4c0.6-0.1,1.1-0.9,0.9-1.4c-0.4-1.2-4.2-3.3-3.2-6.6c1-3.3-3.3-6.5-4.6-4.7
		C40.5,62,41.8,68.5,45.1,71.9z"/>
</g>
<g>
	<path class="st0" d="M108.5,71.4c-2.3,4.2-5.5,7.1-8.5,4.9c-0.4-0.3-0.8-0.7-1.2-1.1c-6.6-8-0.9-14.7-0.9-14.7s3-2.9,6.3-4.4
		c0,0,0,0,0,0c0.1,0,0.1-0.1,0.2-0.1c2.4-1,4.9-1.2,6.6,1.1C113.9,61,111.1,66.6,108.5,71.4z"/>
	<path class="st0" d="M105.3,71.9c-0.9,0.9-2,1.6-3.4,1.4c-0.6-0.1-1.1-0.9-0.9-1.4c0.4-1.2,4.2-3.3,3.2-6.6c-1-3.3,3.3-6.5,4.6-4.7
		C109.8,62,108.6,68.5,105.3,71.9z"/>
</g>
<path class="st0" d="M149.6,150h-75v-33.8c0.2,0,0.4,0,0.6,0h0.1c7.2-0.2,16-2.2,26.5-7.7c0.1,0,0.2,0,0.3,0.1
	c0.4,0.1,0.8,0.2,1.2,0.2c0.5,0.1,1,0.2,1.5,0.3c11.6,1.9,23.8,0.4,32.2,8.9C143.6,124.9,147.9,141.8,149.6,150z"/>
<path class="st0" d="M75.8,116.2V150h-75c1.6-8.2,5.9-25.1,12.6-31.9c8.4-8.5,20.6-7,32.2-8.9c1-0.2,2-0.4,3-0.6
	c10.5,5.4,19.3,7.5,26.5,7.7C75.4,116.2,75.6,116.2,75.8,116.2z"/>
<path class="st0" d="M104.2,56.1L104.2,56.1l-0.2,0c0.3-1.6,4.5-24.1-4.3-34.7c0,0,0,0,0,0c-5-6.1-14.4-10.6-24.7-10.6
	c-10.3,0-19.7,4.6-24.7,10.6c0,0,0,0,0,0c-9.1,11.1-4.3,34.8-4.3,34.8h0l0.2,0c0.9,8.9,2.7,18,6.3,23.6
	c6.8,10.4,15.3,16.1,22.9,16.1c7.6,0,16.1-5.7,22.9-16.1c0.7-1,1.3-2.2,1.8-3.5c0.5-1.1,0.9-2.2,1.3-3.4c0.2-0.7,0.5-1.5,0.7-2.3
	c1.2-4.5,2-9.6,2.5-14.6C104.4,56,104.3,56.1,104.2,56.1C104.2,56.1,104.2,56.1,104.2,56.1z"/>
</svg>
