<svg id="Layer_1" data-name="Layer 1" xmlns="http://www.w3.org/2000/svg" viewBox="0 0 485.82 98.3"><defs><style>.cls-1{fill:#fff;}</style></defs><path class="cls-1" d="M262.39,60.63a49.09,49.09,0,0,1-49.09,49.1,48.34,48.34,0,0,1-29.59-10A58.24,58.24,0,0,0,196,77.94a24.55,24.55,0,1,0,0-34.82c-4.41,4.4-6.82,10.59-7.24,17.41C188,74.9,184.13,84.34,176.47,93a54.75,54.75,0,0,1-7.23,6.71,48.4,48.4,0,0,1-29.59,10,49.1,49.1,0,0,1,0-98.2,48.4,48.4,0,0,1,29.59,10A58.32,58.32,0,0,0,157,43.22a24.55,24.55,0,1,0,0,34.83c4.41-4.41,6.82-10.6,7.24-17.42,1-15.21,4.62-23.81,12.27-32.41a55.47,55.47,0,0,1,7.24-6.71,48.34,48.34,0,0,1,29.59-10A49.22,49.22,0,0,1,262.39,60.63Z" transform="translate(-9.17 -11.43)"/><path class="cls-1" d="M59,109.73,38.7,72.81H33v36.92H9.17V11.93h40q11.57,0,19.71,4A27.88,27.88,0,0,1,81.06,27a31,31,0,0,1,4,15.68,29.08,29.08,0,0,1-5.51,17.41Q74.09,67.79,63.36,71l22.57,38.73ZM33,56H47.76q6.54,0,9.82-3.2t3.27-9.06q0-5.56-3.27-8.77t-9.82-3.21H33Z" transform="translate(-9.17 -11.43)"/><path class="cls-1" d="M335.8,11.63V30.77h-26v79h-23.9v-79h-26V11.63Z" transform="translate(-9.17 -11.43)"/><path class="cls-1" d="M366.11,31.18V50.92h31.83V69.28H366.11v21.4h36v19H342.33V12.14h59.78v19Z" transform="translate(-9.17 -11.43)"/><path class="cls-1" d="M495,109.73h-23.8L431.35,49.44v60.29H407.54V12h23.81l39.83,60.57V12H495Z" transform="translate(-9.17 -11.43)"/></svg>